<?xml version="1.0" encoding="utf-8"?>
<!-- Generator: Adobe Illustrator 22.0.0, SVG Export Plug-In . SVG Version: 6.00 Build 0)  -->
<svg version="1.1" id="Layer_1" xmlns="http://www.w3.org/2000/svg" xmlns:xlink="http://www.w3.org/1999/xlink" x="0px" y="0px"
	 viewBox="0 0 100 100" style="enable-background:new 0 0 100 100;" xml:space="preserve">
<style type="text/css">
	.st0{fill:none;stroke:#EBF0F2;stroke-width:7;stroke-miterlimit:10;}
	.st1{fill:#EFEFEF;}
</style>
<g>
	<g>
		<path class="st0" d="M53.2,12.9c-1.3-2.4-3.6-2.4-4.9,0L6,88.1c-1.3,2.4-0.2,4.4,2.5,4.4H93c2.8,0,3.9-2,2.5-4.4L53.2,12.9z"/>
	</g>
	<g>
		<path class="st1" d="M61.3,73.9c-0.1-0.1-0.2-0.2-0.4-0.2c-1.9-1.3-3.9-2.7-5.8-4c-0.2-0.1-0.3-0.1-0.5,0c-1.5,0.6-3.1-0.4-3.2-2
			c0-0.3-0.1-0.5-0.4-0.7c-1.4-0.9-2.7-1.9-4.1-2.8c0,0,0,0-0.1,0c-0.1-0.1-0.2-0.1-0.3,0c-0.1,0.1-0.2,0.2-0.3,0.3
			c-0.3,0.3-0.6,0.6-0.9,0.9c-0.1,0.1-0.1,0.1,0,0.3c0.8,0.8,1.7,1.7,2.5,2.5c1,1,2,2,3,3c0.5,0.5,0.8,1.1,0.8,1.8
			c0,1.2,0,2.4,0,3.6c0,2.4,0,4.7,0,7.1c0,0.8-0.3,1.4-0.9,1.9c-0.8,0.6-1.6,0.7-2.5,0.3c-0.9-0.4-1.3-1.1-1.3-2.1
			c0-1.6,0-3.3,0-4.9c0-1.5,0-3.1,0-4.6c0-0.2-0.1-0.3-0.2-0.4c-1.6-1.6-3.3-3.3-4.9-4.9c-0.1-0.1-0.1-0.1-0.2-0.2
			c0,0.1,0,0.2,0,0.2c0,1.3,0,2.7,0,4c0,0.3,0,0.6,0,0.9c0,0.4-0.1,0.7-0.3,1.1c-1,3.2-2.1,6.3-3.1,9.5c-0.2,0.5-0.4,0.9-0.8,1.2
			c-0.8,0.6-1.9,0.6-2.7,0.1C34.2,85,33.8,84,34.1,83c0.3-0.8,0.5-1.7,0.8-2.5c0.8-2.3,1.5-4.7,2.3-7c0.1-0.2,0.1-0.5,0.1-0.7
			c0-2.3,0-4.7,0-7c0-1.1,0-2.2,0-3.2c0-0.7,0.2-1.3,0.8-1.9c0.5-0.5,1-1,1.5-1.5c0.1-0.1,0.1-0.1,0.2-0.2c-0.2-0.1-0.4-0.3-0.5-0.4
			c-0.1-0.1-0.1,0-0.2,0.1c-0.2,0.2-0.5,0.4-0.8,0.5c-1.5,0.5-3.1-0.6-3.1-2.1c0-0.3,0-0.7,0-1c0-0.2,0-0.2-0.2-0.3
			c-1-0.7-1.9-1.3-2.9-2c-0.1-0.1-0.1-0.1-0.2-0.2c0.3-0.4,0.5-0.7,0.8-1.1c0.4,0.3,0.9,0.6,1.3,0.9c0.4,0.3,0.8,0.6,1.3,0.9
			c0.1-0.1,0-0.2,0-0.2c0-0.9,0-1.9,0-2.8c0-0.6,0.2-1.2,0.6-1.7c0.5-0.5,1-0.7,1.7-0.7c2.3,0,4.6,0,6.8,0c1.2,0,2.5,0,3.7,0
			c0.7,0,1.3,0.2,1.7,0.7c1.9,1.9,3.8,3.8,5.7,5.6c0.4,0.4,0.7,0.8,0.8,1.4c0,0.1,0,0.3,0,0.4c0,3.5,0,7,0,10.5
			c0,0.3-0.1,0.6-0.2,0.9c-0.1,0.2-0.1,0.2,0.1,0.3c1.4,1,2.8,1.9,4.2,2.9c0.6,0.4,1.1,0.8,1.7,1.2c0.2,0.1,0.2,0.1,0.3-0.1
			c0.6-0.9,1.2-1.7,1.8-2.6c0.1-0.1,0.1-0.2,0.2-0.3c0.3-0.3,0.8-0.3,1.1,0c0.1,0.1,0.2,0.2,0.3,0.3c3,4.4,6,8.7,9.1,13.1
			c0.4,0.6,0.8,1.2,1.2,1.7c0.1,0.1,0.2,0.2,0.2,0.4c0.1,0.3,0,0.5-0.3,0.6C75.6,86,75.4,86,75.2,86c-2,0-4.1,0-6.1,0
			c-4.8,0-9.6,0-14.4,0c-0.2,0-0.4,0-0.6,0c-0.4-0.1-0.6-0.4-0.4-0.8c0-0.1,0.1-0.2,0.2-0.3c2.5-3.6,4.9-7.2,7.4-10.7
			C61.3,74.1,61.3,74,61.3,73.9z"/>
		<path class="st1" d="M51.9,47.7c0-2.7,2.2-5.2,5.2-5.1c2.8,0,5,2.3,5,5.2c0,2.9-2.4,5-5.1,5C54.3,52.8,51.9,50.5,51.9,47.7z"/>
		<path class="st1" d="M79.4,86c-0.6,0-1.2,0-1.9,0c-0.1,0-0.1,0-0.2,0c-0.1,0-0.2,0-0.1-0.2c0-0.2,0.1-0.4,0-0.6
			c-0.1-0.4-0.2-0.7-0.4-1c-1.1-1.6-2.2-3.2-3.3-4.8c-0.8-1.2-1.6-2.3-2.4-3.5c-0.1-0.2-0.1-0.2,0-0.3c0.5-0.7,1-1.4,1.5-2.2
			c0.1-0.2,0.3-0.3,0.5-0.3c0.2,0,0.4,0,0.5,0.2c0.1,0.1,0.1,0.2,0.2,0.2c2.7,3.8,5.3,7.7,8,11.5c0.1,0.1,0.1,0.2,0.2,0.3
			c0.1,0.3,0,0.5-0.3,0.5c-0.1,0-0.2,0-0.4,0C80.7,86,80,86,79.4,86C79.4,86,79.4,86,79.4,86z"/>
	</g>
</g>
</svg>
