<?xml version="1.0" encoding="utf-8"?>
<!-- Generator: Adobe Illustrator 22.0.0, SVG Export Plug-In . SVG Version: 6.00 Build 0)  -->
<svg version="1.1" id="Layer_1" xmlns="http://www.w3.org/2000/svg" xmlns:xlink="http://www.w3.org/1999/xlink" x="0px" y="0px"
	 viewBox="0 0 110 42.3" style="enable-background:new 0 0 110 42.3;" xml:space="preserve">
<style type="text/css">
	.st0{fill:#FFFFFF;}
</style>
<g>
	<path class="st0" d="M59.2,40.9c-4.2,0-3.5,0.4-4.2-3.4C53,26.4,51,15.3,49,4.2c-0.1-0.8-0.5-1.7,0.8-1.9c1.8-0.3,2.5,0,2.8,1.6
		c1,6.3,2,12.5,3,18.8c0.5,3.4,1.1,6.8,1.6,10.2c0.2,1.3,0.8,1.6,2,1.6c1.2,0,1.8-0.3,2-1.6c1.4-9.5,3-18.9,4.5-28.4
		c0.2-1.2,0.1-2.5,2-2.4c1.7,0.1,2,0.3,1.7,1.9c-0.7,4.2-1.5,8.4-2.2,12.6c-1.2,6.8-2.4,13.7-3.7,20.5
		C62.7,41.6,63.3,40.8,59.2,40.9z"/>
	<path class="st0" d="M59.5,26.8c-1-1.7-1-3.6-1.3-5.4c-0.9-5.8-1.7-11.7-2.6-17.6c-0.2-1.3,0.2-1.7,1.4-1.7c1.4,0,2.7,0.1,4.1,0
		c1.4-0.1,1.8,0.6,1.6,1.9c-0.8,5.6-1.6,11.2-2.4,16.7C60.1,22.9,59.8,24.8,59.5,26.8z"/>
	<path class="st0" d="M20.1,21.6c1.3-1,1.2-2.1,1.2-3.2c0-4.3,0-8.6,0-12.8c0-1.1,0.2-2.2-1.3-2.9c1.2-0.5,2.1-0.3,2.9-0.3
		c0.3,0,0.6,0,0.7,0.3c1.4,3.5,4.5,5.8,6.7,8.7c1.5,1.9,3.2,3.7,5,5.4C35,12,36.6,7.3,35.1,2.6c0.8-0.1,1.8-0.1,3.2-0.2
		c-1.3,1.4-1,2.9-1,4.4c-0.1,4.4-0.2,8.8-0.3,13.1c0,0.5,0.2,1.2-0.3,1.4c-0.6,0.3-0.9-0.5-1.2-0.8c-3.9-4.6-7.8-9.2-11.7-13.8
		c-0.2-0.2-0.3-0.5-0.3-0.6c-0.8,0.3-0.7,0.7-0.7,1.1c0,3.9,0,7.8,0,11.7c0,0.4,0,0.9,0.2,1.3c0.6,1.8,0.6,1.8-1.4,1.7
		C21.2,21.7,20.9,21.7,20.1,21.6z"/>
	<path class="st0" d="M16.8,21.5c-2.8,0.7-3.4,0.4-2.9-1.5c-1.7,0.6-3,1.6-4.7,1.9c-4.6,0.9-8.1-1.8-8.3-6.5c-0.1-3.1,0-6.2,0-9.4
		c0-1.2,0.2-2.4-1-3.2c0.2-0.5,0.5-0.5,0.8-0.5C3,2.2,3,2.2,3,4.5c0,3.5,0,7,0,10.5c0,2.6,1,4.6,3.5,5.6c2.6,1,4.8,0.1,6.9-1.3
		c0.6-0.4,0.7-1.1,0.7-1.7c0-4.3,0-8.5,0-12.8c0-0.2-0.1-0.4,0-0.7c0.1-0.6-1-1.1-0.4-1.6c0.7-0.5,1.7-0.2,2.6-0.1
		c0.5,0,0.7,0.3,0.5,0.8c-0.8,1.7-0.5,3.4-0.5,5.2c-0.1,3.2,0,6.4,0,9.5C16.1,19.1,15.9,20.4,16.8,21.5z"/>
	<path class="st0" d="M80.5,4c-0.5-0.2-0.9-0.4-1.2-0.5c-3-0.9-4-0.1-4,2.9c0,0.9,0,1.9,0,2.8c-0.1,1.3,0.5,1.8,1.8,1.7
		c0.9-0.1,1.7-0.1,2.6-0.2c0.4,0,0.8-0.8,1.1-0.2c0.2,0.4,0.2,1.1,0.1,1.6c-0.1,0.7-0.7,0.3-1.1,0.2c-4.1-0.6-4.5-0.3-4.7,3.7
		c-0.2,4.2,0,4.4,4.1,4.3c1.3,0,2.7,0.2,3.8-1.4c-0.1,2-0.7,2.8-2.3,2.8c-2.5,0-4.9,0-7.4,0c-0.8,0-1.2-0.2-0.6-1
		c0.5-0.7,0.5-1.5,0.5-2.4c0-4.2,0-8.4,0-12.6c0-0.8-0.1-1.6-0.4-2.2c-0.5-1,0-1.2,0.8-1.2c1.8,0,3.6,0,5.4,0
		C80.2,2.3,80.3,2.4,80.5,4z"/>
	<path class="st0" d="M103.1,12c0.7-0.1,1-0.1,1.2-0.1c2.5-0.2,3.6-1.2,3.8-3.7c0.2-2.2-1.1-4.3-3-4.9c-1.8-0.6-2.7,0.1-2.7,2
		c0,4.5,0,9.1,0,13.6c0,1,0.1,1.9,1.2,2.7c-1.6,0.3-2.8,0.2-4.4,0c1.4-0.9,1.2-2,1.2-3.1c0-4.3,0-8.5,0-12.8c0-0.8,0.1-1.6-0.5-2.4
		c-0.6-0.8,0-0.9,0.6-1c1.7,0,3.4-0.2,5.1,0c3.2,0.4,4.9,3,4.3,6.3C109.3,11.5,105.7,13,103.1,12z"/>
	<path class="st0" d="M86.5,18.3c0.8,2.4,2.6,2.9,4.6,2.7c1.4-0.1,2.5-0.8,3-2.2c0.5-1.3,0.2-2.6-0.8-3.6c-1.4-1.5-3.2-2.5-4.7-3.9
		c-1-0.9-2-1.9-2.2-3.4c-0.4-2,0.5-4,2.1-5c1.5-0.9,4.8-0.9,6,0c0.6,0.5,0.8,1.2,0.4,1.7c-0.6,0.8-0.9-0.1-1.3-0.4
		c-1.6-1.3-4-1.4-5.2-0.1c-1.1,1.2-0.9,3.4,0.7,4.8c1.5,1.4,3.3,2.6,4.9,3.9c1.9,1.6,2.4,3.4,1.7,5.5c-0.7,2-2.4,3.2-4.8,3.3
		c-0.8,0-1.6,0-2.5,0C86.2,21.6,85.8,21,86.5,18.3z"/>
	<path class="st0" d="M41.5,21.8c1.1-2.6,0.8-17.6-0.3-19.2c1.3,0,2.6,0,4.1,0c-1.3,1.2-1.1,2.6-1.1,4c0.1,4.8-0.3,9.6,0.5,14.4
		c0.1,0.7-0.2,0.8-0.7,0.8C43.2,21.8,42.4,21.8,41.5,21.8z"/>
</g>
</svg>
